<?xml version="1.0" encoding="UTF-8" standalone="no"?>
<!-- Generator: Adobe Illustrator 17.1.0, SVG Export Plug-In . SVG Version: 6.00 Build 0)  -->

<svg
   xmlns:dc="http://purl.org/dc/elements/1.1/"
   xmlns:cc="http://creativecommons.org/ns#"
   xmlns:rdf="http://www.w3.org/1999/02/22-rdf-syntax-ns#"
   xmlns:svg="http://www.w3.org/2000/svg"
   xmlns="http://www.w3.org/2000/svg"
   xmlns:xlink="http://www.w3.org/1999/xlink"
   xmlns:sodipodi="http://sodipodi.sourceforge.net/DTD/sodipodi-0.dtd"
   xmlns:inkscape="http://www.inkscape.org/namespaces/inkscape"
   version="1.1"
   id="Layer_1"
   x="0px"
   y="0px"
   viewBox="0 0 64 64"
   style="enable-background:new 0 0 64 64;"
   xml:space="preserve"
   inkscape:version="0.91 r13725"
   sodipodi:docname="camera_locked.svg"
   inkscape:export-filename="/home/gkanwar/the-elements/TheElements-dev/res/drawable-xxhdpi/camera_icon_locked.png"
   inkscape:export-xdpi="720"
   inkscape:export-ydpi="720"><metadata
     id="metadata4691"><rdf:RDF><cc:Work
         rdf:about=""><dc:format>image/svg+xml</dc:format><dc:type
           rdf:resource="http://purl.org/dc/dcmitype/StillImage" /><dc:title></dc:title></cc:Work></rdf:RDF></metadata><defs
     id="defs4689"><linearGradient
       id="linearGradient7573"
       inkscape:collect="always"><stop
         id="stop7575"
         offset="0"
         style="stop-color:#a5a5a5;stop-opacity:1;" /><stop
         id="stop7577"
         offset="1"
         style="stop-color:#a5a5a5;stop-opacity:0;" /></linearGradient><mask
       id="mask6321"
       maskUnits="userSpaceOnUse"><rect
         ry="0"
         y="991.82306"
         x="16.322842"
         height="24.174335"
         width="30.786118"
         id="rect6323"
         style="opacity:1;fill:#ffffff;fill-opacity:1;stroke:none;stroke-width:1;stroke-linecap:butt;stroke-linejoin:miter;stroke-miterlimit:4;stroke-dasharray:none;stroke-opacity:1" /></mask><mask
       id="mask7420"
       maskUnits="userSpaceOnUse"><rect
         style="opacity:1;fill:#ffffff;fill-opacity:1;stroke:none;stroke-width:1;stroke-linecap:butt;stroke-linejoin:miter;stroke-miterlimit:4;stroke-dasharray:none;stroke-opacity:1"
         id="rect7422"
         width="48.761906"
         height="30.786119"
         x="7.8514938"
         y="985.2113"
         ry="0" /></mask><filter
       height="2"
       width="3"
       y="-0.75"
       x="-0.75"
       id="filter7556"
       style="color-interpolation-filters:sRGB"
       inkscape:label="Cutout Glow"
       inkscape:menu="Shadows and Glows"
       inkscape:menu-tooltip="In and out glow with a possible offset and colorizable flood"><feOffset
         id="feOffset7558"
         dx="0"
         dy="0" /><feGaussianBlur
         id="feGaussianBlur7560"
         result="blur"
         stdDeviation="3" /><feFlood
         id="feFlood7562"
         result="flood"
         flood-opacity="1"
         flood-color="rgb(0,0,0)" /><feComposite
         id="feComposite7564"
         result="composite"
         operator="in"
         in2="SourceGraphic"
         in="flood" /><feBlend
         id="feBlend7566"
         mode="normal"
         in2="composite"
         in="blur" /></filter><radialGradient
       gradientUnits="userSpaceOnUse"
       gradientTransform="matrix(-14.497329,-0.8158192,1.7382708,-30.88953,-1119.6041,32626.968)"
       r="4.8554735"
       fy="1027.3367"
       fx="28.696949"
       cy="1027.3367"
       cx="28.696949"
       id="radialGradient7579"
       xlink:href="#linearGradient7573"
       inkscape:collect="always" /><filter
       height="1.3999999999999999"
       width="1.3999999999999999"
       y="-0.20000000000000001"
       x="-0.20000000000000001"
       id="filter4291"
       style="color-interpolation-filters:sRGB;"
       inkscape:label="Cutout Glow"
       inkscape:menu="Shadows and Glows"
       inkscape:menu-tooltip="In and out glow with a possible offset and colorizable flood"><feOffset
         id="feOffset4293"
         dx="3"
         dy="3" /><feGaussianBlur
         id="feGaussianBlur4295"
         result="blur"
         stdDeviation="20" /><feFlood
         id="feFlood4297"
         result="flood"
         flood-opacity="1"
         flood-color="rgb(0,0,0)" /><feComposite
         id="feComposite4299"
         result="composite"
         operator="in"
         in2="SourceGraphic"
         in="flood" /><feBlend
         id="feBlend4301"
         mode="normal"
         in2="composite"
         in="blur" /></filter></defs><sodipodi:namedview
     pagecolor="#ffffff"
     bordercolor="#666666"
     borderopacity="1"
     objecttolerance="10"
     gridtolerance="10"
     guidetolerance="10"
     inkscape:pageopacity="0"
     inkscape:pageshadow="2"
     inkscape:window-width="1920"
     inkscape:window-height="1025"
     id="namedview4687"
     showgrid="false"
     inkscape:zoom="4.778495"
     inkscape:cx="46.522508"
     inkscape:cy="3.0889338"
     inkscape:window-x="0"
     inkscape:window-y="27"
     inkscape:window-maximized="1"
     inkscape:current-layer="layer2" /><g
     inkscape:groupmode="layer"
     id="layer2"
     inkscape:label="Layer 1"><g
       inkscape:groupmode="layer"
       id="layer1"
       inkscape:label="Background"
       style="display:none"
       sodipodi:insensitive="true"><rect
         style="opacity:1;fill:#000000;fill-opacity:1;stroke:none;stroke-width:8;stroke-linecap:round;stroke-linejoin:round;stroke-miterlimit:4;stroke-dasharray:none;stroke-opacity:1"
         id="rect4712"
         width="70.942841"
         height="70.628929"
         x="-4.2900538"
         y="-3.1759617" /></g><path
       style="opacity:1;fill:#ffffff;fill-opacity:1;stroke:none;stroke-width:8;stroke-linecap:round;stroke-linejoin:round;stroke-miterlimit:4;stroke-dasharray:none;stroke-opacity:1"
       d="m 11.386719,18.003464 c -2.3766904,0 -4.2890628,1.912372 -4.2890628,4.289062 l 0,26.054688 c 10e-8,2.37669 1.9123724,4.289062 4.2890628,4.289062 l 41.226562,0 c 2.37669,0 4.289063,-1.912372 4.289063,-4.289062 l 0,-26.054688 c 0,-2.37669 -1.912373,-4.289062 -4.289063,-4.289062 l -7.690755,0 c -0.621538,0 -1.069636,-0.29784 -1.445283,-0.953645 l -2.890566,-5.046355 c -0.327887,-0.520994 -0.817545,-0.63974 -1.445283,-0.63974 l -14.282788,0 c -0.761464,0 -1.174508,0.167021 -1.445283,0.63974 l -2.890567,5.046355 c -0.563838,0.98435 -1.028487,0.953645 -1.445283,0.953645 z m 39.728515,2.021484 c 1.184279,2.73e-4 2.144258,0.960252 2.144532,2.144531 -2.73e-4,1.184279 -0.960253,2.144259 -2.144532,2.144532 -1.185041,8.05e-4 -2.146211,-0.95949 -2.146484,-2.144532 2.74e-4,-1.185041 0.961443,-2.145336 2.146484,-2.144531 z M 32,23.495651 C 38.53043,23.495423 43.824447,28.78944 43.824219,35.31987 43.824447,41.8503 38.53043,47.144317 32,47.144089 25.46957,47.144317 20.175553,41.8503 20.175781,35.31987 20.175553,28.78944 25.46957,23.495423 32,23.495651 Z m 0,2.40625 c -5.201579,-4.3e-4 -9.418399,4.21639 -9.417969,9.417969 -4.3e-4,5.201579 4.21639,9.418399 9.417969,9.417969 5.201579,4.3e-4 9.418399,-4.21639 9.417969,-9.417969 C 41.418399,30.118291 37.201579,25.901471 32,25.901901 Z"
       id="rect4717"
       inkscape:connector-curvature="0"
       sodipodi:nodetypes="csssssscsscssssscccccccccccccccc" /><g
       style="display:inline"
       transform="matrix(0.0625,0,0,0.0625,34.957733,-1.9161721)"
       id="layer1-8"
       inkscape:label="Layer 1"><path
         inkscape:connector-curvature="0"
         id="rect4155"
         d="m 148.84314,749.35576 214.31372,0 c 29.64175,0 53.50496,23.8632 53.50496,53.5048 l 0,158.1144 c 0,29.6416 -23.86321,53.50484 -53.50496,53.50484 l -214.31372,0 c -29.64175,0 -53.504956,-23.86324 -53.504956,-53.50484 l 0,-158.1144 c 0,-29.6416 23.863206,-53.5048 53.504956,-53.5048 z"
         mask="none"
         style="opacity:1;fill:#000000;fill-opacity:1;stroke:none;stroke-width:64;stroke-linecap:butt;stroke-linejoin:miter;stroke-miterlimit:4;stroke-dasharray:none;stroke-opacity:0.11764706;filter:url(#filter4291)" /><path
         inkscape:connector-curvature="0"
         id="path6329"
         d="m 256.00002,806.42776 a 38.84423,38.84423 0 0 1 38.84376,38.8592 38.84423,38.84423 0 0 1 -24.96876,36.2656 c 0.072,0.576 0.17184,1.1504 0.17184,1.7504 l 0,61.156 c 0,7.7832 -6.26315,14.0472 -14.04687,14.0472 -7.78372,0 -14.04687,-6.264 -14.04687,-14.0472 l 0,-61.156 c 0,-0.608 0.0974,-1.1896 0.17184,-1.7816 a 38.84423,38.84423 0 0 1 -24.96875,-36.2344 38.84423,38.84423 0 0 1 38.84375,-38.8592 z"
         style="opacity:1;fill:url(#radialGradient7579);fill-opacity:1;stroke:none;stroke-width:6;stroke-linecap:butt;stroke-linejoin:miter;stroke-miterlimit:4;stroke-dasharray:none;stroke-opacity:1" /><path
         transform="matrix(8,0,0,8,0,-7358.7866)"
         inkscape:connector-curvature="0"
         id="rect4157"
         d="m 29.417202,995.12891 5.165596,0 c 4.979254,0 8.987823,4.00857 8.987823,8.98779 l 0,21.2818 c 0,4.9793 -4.008569,8.9879 -8.987823,8.9879 l -5.165596,0 c -4.979254,0 -8.987823,-4.0086 -8.987823,-8.9879 l 0,-21.2818 c 0,-4.97922 4.008569,-8.98779 8.987823,-8.98779 z"
         mask="url(#mask7420)"
         style="opacity:1;fill:none;fill-opacity:1;stroke:#000000;stroke-width:6;stroke-linecap:butt;stroke-linejoin:miter;stroke-miterlimit:4;stroke-dasharray:none;stroke-opacity:1;filter:url(#filter7556)" /></g></g></svg>