<?xml version="1.0" encoding="UTF-8" standalone="no"?>
<!-- Generator: Adobe Illustrator 17.1.0, SVG Export Plug-In . SVG Version: 6.00 Build 0)  -->

<svg
   xmlns:dc="http://purl.org/dc/elements/1.1/"
   xmlns:cc="http://creativecommons.org/ns#"
   xmlns:rdf="http://www.w3.org/1999/02/22-rdf-syntax-ns#"
   xmlns:svg="http://www.w3.org/2000/svg"
   xmlns="http://www.w3.org/2000/svg"
   xmlns:sodipodi="http://sodipodi.sourceforge.net/DTD/sodipodi-0.dtd"
   xmlns:inkscape="http://www.inkscape.org/namespaces/inkscape"
   version="1.1"
   id="Layer_1"
   x="0px"
   y="0px"
   viewBox="0 0 64 64"
   style="enable-background:new 0 0 64 64;"
   xml:space="preserve"
   inkscape:version="0.91 r13725"
   sodipodi:docname="camera.svg"
   inkscape:export-filename="/home/gkanwar/the-elements/TheElements-dev/res/drawable-mdpi/camera_icon.png"
   inkscape:export-xdpi="90"
   inkscape:export-ydpi="90"><metadata
     id="metadata4691"><rdf:RDF><cc:Work
         rdf:about=""><dc:format>image/svg+xml</dc:format><dc:type
           rdf:resource="http://purl.org/dc/dcmitype/StillImage" /><dc:title /></cc:Work></rdf:RDF></metadata><defs
     id="defs4689" /><sodipodi:namedview
     pagecolor="#ffffff"
     bordercolor="#666666"
     borderopacity="1"
     objecttolerance="10"
     gridtolerance="10"
     guidetolerance="10"
     inkscape:pageopacity="0"
     inkscape:pageshadow="2"
     inkscape:window-width="1920"
     inkscape:window-height="1025"
     id="namedview4687"
     showgrid="false"
     inkscape:zoom="4.778495"
     inkscape:cx="-28.175143"
     inkscape:cy="15.817935"
     inkscape:window-x="0"
     inkscape:window-y="27"
     inkscape:window-maximized="1"
     inkscape:current-layer="layer1" /><g
     inkscape:groupmode="layer"
     id="layer2"
     inkscape:label="Layer 1"><g
       inkscape:groupmode="layer"
       id="layer1"
       inkscape:label="Background"
       sodipodi:insensitive="true"
       style="display:none"><rect
         style="opacity:1;fill:#000000;fill-opacity:1;stroke:none;stroke-width:8;stroke-linecap:round;stroke-linejoin:round;stroke-miterlimit:4;stroke-dasharray:none;stroke-opacity:1"
         id="rect4712"
         width="70.942841"
         height="70.628929"
         x="-4.2900538"
         y="-3.1759617" /></g><path
       style="opacity:1;fill:#ffffff;fill-opacity:1;stroke:none;stroke-width:8;stroke-linecap:round;stroke-linejoin:round;stroke-miterlimit:4;stroke-dasharray:none;stroke-opacity:1"
       d="m 11.386719,18.003464 c -2.3766904,0 -4.2890628,1.912372 -4.2890628,4.289062 l 0,26.054688 c 10e-8,2.37669 1.9123724,4.289062 4.2890628,4.289062 l 41.226562,0 c 2.37669,0 4.289063,-1.912372 4.289063,-4.289062 l 0,-26.054688 c 0,-2.37669 -1.912373,-4.289062 -4.289063,-4.289062 l -7.690755,0 c -0.621538,0 -1.069636,-0.29784 -1.445283,-0.953645 l -2.890566,-5.046355 c -0.327887,-0.520994 -0.817545,-0.63974 -1.445283,-0.63974 l -14.282788,0 c -0.761464,0 -1.174508,0.167021 -1.445283,0.63974 l -2.890567,5.046355 c -0.563838,0.98435 -1.028487,0.953645 -1.445283,0.953645 z m 39.728515,2.021484 c 1.184279,2.73e-4 2.144258,0.960252 2.144532,2.144531 -2.73e-4,1.184279 -0.960253,2.144259 -2.144532,2.144532 -1.185041,8.05e-4 -2.146211,-0.95949 -2.146484,-2.144532 2.74e-4,-1.185041 0.961443,-2.145336 2.146484,-2.144531 z M 32,23.495651 C 38.53043,23.495423 43.824447,28.78944 43.824219,35.31987 43.824447,41.8503 38.53043,47.144317 32,47.144089 25.46957,47.144317 20.175553,41.8503 20.175781,35.31987 20.175553,28.78944 25.46957,23.495423 32,23.495651 Z m 0,2.40625 c -5.201579,-4.3e-4 -9.418399,4.21639 -9.417969,9.417969 -4.3e-4,5.201579 4.21639,9.418399 9.417969,9.417969 5.201579,4.3e-4 9.418399,-4.21639 9.417969,-9.417969 C 41.418399,30.118291 37.201579,25.901471 32,25.901901 Z"
       id="rect4717"
       inkscape:connector-curvature="0"
       sodipodi:nodetypes="csssssscsscssssscccccccccccccccc" /></g></svg>