<?xml version="1.0" encoding="UTF-8" standalone="no"?>
<!-- Generator: Adobe Illustrator 17.1.0, SVG Export Plug-In . SVG Version: 6.00 Build 0)  -->

<svg
   xmlns:dc="http://purl.org/dc/elements/1.1/"
   xmlns:cc="http://creativecommons.org/ns#"
   xmlns:rdf="http://www.w3.org/1999/02/22-rdf-syntax-ns#"
   xmlns:svg="http://www.w3.org/2000/svg"
   xmlns="http://www.w3.org/2000/svg"
   xmlns:sodipodi="http://sodipodi.sourceforge.net/DTD/sodipodi-0.dtd"
   xmlns:inkscape="http://www.inkscape.org/namespaces/inkscape"
   version="1.1"
   id="Layer_1"
   x="0px"
   y="0px"
   viewBox="0 0 64 64"
   style="enable-background:new 0 0 64 64;"
   xml:space="preserve"
   inkscape:version="0.91 r13725"
   sodipodi:docname="earth_modified.svg"><metadata
     id="metadata4202"><rdf:RDF><cc:Work
         rdf:about=""><dc:format>image/svg+xml</dc:format><dc:type
           rdf:resource="http://purl.org/dc/dcmitype/StillImage" /><dc:title></dc:title></cc:Work></rdf:RDF></metadata><defs
     id="defs4200" /><sodipodi:namedview
     pagecolor="#ffffff"
     bordercolor="#666666"
     borderopacity="1"
     objecttolerance="10"
     gridtolerance="10"
     guidetolerance="10"
     inkscape:pageopacity="0"
     inkscape:pageshadow="2"
     inkscape:window-width="1920"
     inkscape:window-height="1025"
     id="namedview4198"
     showgrid="false"
     inkscape:zoom="13.515625"
     inkscape:cx="32"
     inkscape:cy="32"
     inkscape:window-x="0"
     inkscape:window-y="27"
     inkscape:window-maximized="1"
     inkscape:current-layer="Layer_1" /><g
     id="g4190"
     transform="matrix(0.93032869,0,0,0.93032869,2.6946463,2.6946463)"><path
       d="M 61.235,31.5 C 61.235,15.104 47.896,1.765 31.5,1.765 c -3.447,0 -6.755,0.596 -9.836,1.68 0.144,0.146 0.278,0.3 0.413,0.454 0.135,0.154 0.266,0.312 0.392,0.474 0.952,1.224 1.643,2.659 1.973,4.229 0.039,0.184 0.062,0.374 0.091,0.562 0.029,0.19 0.064,0.378 0.083,0.572 2.127,-0.648 4.382,-1 6.718,-1 12.736,0 23.098,10.362 23.098,23.098 0,12.736 -10.362,23.098 -23.098,23.098 -12.736,0 -23.098,-10.362 -23.098,-23.098 0,-4.042 1.047,-7.843 2.879,-11.151 -0.187,-0.059 -0.367,-0.132 -0.55,-0.201 C 10.388,20.415 10.212,20.347 10.04,20.271 8.673,19.664 7.465,18.77 6.483,17.667 6.346,17.514 6.212,17.359 6.085,17.198 5.959,17.039 5.838,16.878 5.721,16.712 3.209,21.07 1.765,26.118 1.765,31.5 c 0,16.396 13.339,29.735 29.735,29.735 16.396,0 29.735,-13.339 29.735,-29.735 z"
       id="path4192"
       inkscape:connector-curvature="0" /><path
       d="m 47.088,31.417 c 0,-8.733 -7.105,-15.838 -15.838,-15.838 -8.733,0 -15.838,7.105 -15.838,15.838 0,8.733 7.105,15.838 15.838,15.838 8.733,0 15.838,-7.105 15.838,-15.838 z"
       id="path4194"
       inkscape:connector-curvature="0" /><path
       d="M 20.056,4.666 C 19.909,4.525 19.761,4.385 19.604,4.255 18.149,3.054 16.284,2.333 14.25,2.333 c -4.648,0 -8.417,3.768 -8.417,8.417 0,1.481 0.385,2.871 1.057,4.08 0.1,0.18 0.207,0.355 0.32,0.526 0.114,0.174 0.238,0.341 0.365,0.507 0.905,1.179 2.109,2.113 3.506,2.682 0.176,0.072 0.356,0.137 0.538,0.197 0.191,0.063 0.386,0.115 0.583,0.164 0.657,0.165 1.34,0.261 2.048,0.261 4.648,0 8.417,-3.768 8.417,-8.417 0,-0.106 -0.012,-0.21 -0.016,-0.315 C 22.643,10.233 22.636,10.03 22.615,9.832 22.594,9.639 22.562,9.45 22.528,9.261 22.245,7.679 21.521,6.254 20.486,5.111 20.347,4.958 20.205,4.809 20.056,4.666 Z"
       id="path4196"
       inkscape:connector-curvature="0" /></g></svg>