<?xml version="1.0" encoding="iso-8859-1"?>
<!-- Generator: Adobe Illustrator 17.1.0, SVG Export Plug-In . SVG Version: 6.00 Build 0)  -->
<!DOCTYPE svg PUBLIC "-//W3C//DTD SVG 1.1//EN" "http://www.w3.org/Graphics/SVG/1.1/DTD/svg11.dtd">
<svg version="1.1" id="Layer_1" xmlns="http://www.w3.org/2000/svg" xmlns:xlink="http://www.w3.org/1999/xlink" x="0px" y="0px"
	 viewBox="0 0 64 64" style="enable-background:new 0 0 64 64;" xml:space="preserve">
<g>
	<path d="M40.106,8.805c-0.474,0-0.963,0.033-1.521,0.104c-2.383-3.585-6.337-5.715-10.638-5.715
		c-6.814,0-12.439,5.415-12.763,12.169c-0.11-0.006-0.221-0.01-0.332-0.01c-7.048,0-12.782,5.734-12.782,12.782
		c0,3.196,1.185,6.24,3.343,8.604c-0.46,1.444-0.693,2.927-0.693,4.413c0,8.037,6.539,14.575,14.575,14.575
		c2.051,0,4.046-0.43,5.936-1.277c2.651,3.194,6.517,5.019,10.666,5.019c6.844,0,12.667-5.024,13.7-11.75
		c6.947-0.55,12.333-6.34,12.333-13.347c0-5.769-3.619-10.818-9.043-12.678c0.001-0.035,0.002-0.069,0.002-0.104
		C52.889,14.54,47.154,8.805,40.106,8.805z M12.702,31.346c0.245-6.536,2.962-11.193,8.079-13.869c4-2.092,8.253-2.254,9.462-2.254
		c0.238,0,0.367,0.006,0.367,0.006c0.138,0.006,0.25,0.112,0.266,0.249c0.015,0.137-0.071,0.265-0.204,0.301
		c-3.022,0.829-5.544,4.635-5.569,4.673c-3.471,4.981-2.981,9.274-1.959,12c1.714,4.574,6.023,7.82,9.393,8.663
		c1.044,0.261,2.108,0.393,3.163,0.393c3.168,0,5.582-1.196,6.613-1.706c0.407-0.202,0.575-0.285,0.719-0.285
		c0.155,0,0.317,0.156,0.317,0.311c0,0.524-2.943,5.515-7.037,7.12c-1.861,0.804-4.23,1.249-6.662,1.249
		C21.907,48.195,13.389,43.769,12.702,31.346z M37.957,13.302c-0.002-0.133,0.072-0.255,0.191-0.316
		c0.118-0.06,0.261-0.048,0.368,0.031l2.574,1.921l3.042-1.031c0.125-0.044,0.266-0.011,0.359,0.084
		c0.094,0.094,0.127,0.233,0.084,0.359l-1.031,3.042l1.921,2.574c0.08,0.106,0.092,0.249,0.031,0.368s-0.199,0.176-0.316,0.191
		l-3.212-0.041l-1.854,2.623c-0.066,0.093-0.173,0.147-0.286,0.147c-0.018,0-0.037-0.001-0.055-0.004
		c-0.131-0.021-0.24-0.114-0.279-0.241l-0.953-3.067l-3.067-0.954c-0.127-0.04-0.221-0.148-0.241-0.279
		c-0.021-0.131,0.035-0.263,0.143-0.34l2.623-1.854L37.957,13.302z M30.81,28.25c-0.001-0.076,0.041-0.146,0.109-0.181
		c0.069-0.035,0.15-0.027,0.21,0.018l1.471,1.098l1.738-0.59c0.072-0.023,0.152-0.006,0.206,0.048
		c0.054,0.054,0.073,0.133,0.048,0.205l-0.59,1.739l1.098,1.471c0.045,0.061,0.053,0.143,0.018,0.21s-0.12,0.112-0.181,0.109
		l-1.836-0.023l-1.06,1.499c-0.038,0.054-0.099,0.084-0.163,0.084c-0.01,0-0.021,0-0.031-0.002c-0.075-0.012-0.137-0.065-0.16-0.138
		l-0.545-1.753L29.39,31.5c-0.072-0.022-0.126-0.084-0.138-0.16c-0.012-0.075,0.02-0.15,0.082-0.194l1.499-1.06L30.81,28.25z
		 M43.095,35.888c-0.053,0.075-0.139,0.119-0.229,0.119c-0.015,0-0.029-0.001-0.044-0.003c-0.105-0.017-0.192-0.092-0.224-0.194
		l-0.763-2.457l-2.457-0.763c-0.102-0.032-0.177-0.119-0.194-0.224c-0.017-0.105,0.028-0.211,0.115-0.272l2.101-1.485l-0.033-2.572
		c-0.001-0.106,0.058-0.205,0.153-0.253c0.094-0.048,0.209-0.038,0.294,0.025l2.061,1.539l2.437-0.826
		c0.099-0.036,0.212-0.009,0.288,0.067c0.075,0.076,0.101,0.187,0.067,0.288l-0.826,2.437l1.539,2.062
		c0.063,0.085,0.073,0.2,0.025,0.294c-0.048,0.095-0.144,0.154-0.253,0.153l-2.572-0.034L43.095,35.888z"/>
</g>
</svg>
